PathFileType	4	(X/Y/Z)	E:\Qualisys_Data\Carbon_Farble_Plate\Data\Amateur_Runner\S1\T2\S1T2V21_c3d.trc
DataRate	CameraRate	NumFrames	NumMarkers	Units	OrigDataRate	OrigDataStartFrame	OrigNumFrames
200.000000	200.000000	5	39	mm	200.000000	213	284
Frame#	Time	LSHO			RSHO			LICST			RICST			LASIS			LHEEL			RASIS			LTROC			RTROC			SACR			LTH1			LSK4			LTH2			LTH3			RHM5			LSK2			LTH4			RTH1			LTOE			RTH2			RTH3			RTH4			LLEP			RLEP			LSK1			LSK3			RSK1			LHM5			RSK2			LFT1			RSK3			RSK4			LLME			RLME			RTOE			RHEEL			RFT1			RFT2			LFT2			
		X1	Y1	Z1	X2	Y2	Z2	X3	Y3	Z3	X4	Y4	Z4	X5	Y5	Z5	X6	Y6	Z6	X7	Y7	Z7	X8	Y8	Z8	X9	Y9	Z9	X10	Y10	Z10	X11	Y11	Z11	X12	Y12	Z12	X13	Y13	Z13	X14	Y14	Z14	X15	Y15	Z15	X16	Y16	Z16	X17	Y17	Z17	X18	Y18	Z18	X19	Y19	Z19	X20	Y20	Z20	X21	Y21	Z21	X22	Y22	Z22	X23	Y23	Z23	X24	Y24	Z24	X25	Y25	Z25	X26	Y26	Z26	X27	Y27	Z27	X28	Y28	Z28	X29	Y29	Z29	X30	Y30	Z30	X31	Y31	Z31	X32	Y32	Z32	X33	Y33	Z33	X34	Y34	Z34	X35	Y35	Z35	X36	Y36	Z36	X37	Y37	Z37	X38	Y38	Z38	X39	Y39	Z39	

214	1.065	1800.574340820312	1463.6904296875	-589.5338745117188	1844.151611328125	1483.089233398438	-268.7926635742188	1801.640258789062	1016.269775390625	-534.7626342773438	1821.45068359375	1019.452514648438	-235.3990020751953	1852.225830078125	981.0624389648438	-513.708740234375	1893.393676757812	73.91633605957031	-433.7994384765625	1857.272094726562	970.5591430664062	-249.2291107177734	1753.05859375	890.6563720703125	-555.036376953125	1741.8994140625	886.3916015625	-212.3401794433594	1692.245361328125	1028.817993164062	-374.8413696289062	1921.42333984375	779.22802734375	-534.9172973632812	1892.021118164062	215.7863311767578	-469.8018188476562	1848.967041015625	743.5379028320312	-561.564453125	1958.92041015625	682.8226318359375	-521.3546142578125	1288.8271484375	306.4617004394531	-250.4122467041016	1894.319458007812	311.4747314453125	-510.9247131347656	1880.536376953125	650.8922729492188	-536.7128295898438	1851.508178710938	742.822998046875	-241.6295166015625	2147.57861328125	76.24420166015625	-446.218017578125	1776.4384765625	748.0899658203125	-214.7839965820312	1842.303833007812	642.0144653320312	-246.7403717041016	1763.354614257812	649.6040649414062	-229.9998626708984	1957.0947265625	520.3892211914062	-501.1400756835938	1759.388427734375	483.7245788574219	-260.5414123535156	1979.162963867188	307.4330444335938	-501.1643676757812	1968.062255859375	206.7692565917969	-493.1007690429688	1582.328735351562	443.0141296386719	-248.5549621582031	2080.186767578125	43.50081634521484	-508.2619323730469	1571.252807617188	521.635009765625	-270.3904724121094	1902.692504882812	47.34714889526367	-406.2025146484375	1484.535400390625	424.8999328613281	-263.6094360351562	1474.617431640625	500.5897827148438	-291.8079223632812	1941.106567382812	91.084228515625	-488.5828247070312	1353.210327148438	439.6173095703125	-268.9867248535156	1316.591796875	242.8016052246094	-319.3664245605469	1315.786010742188	495.8500366210938	-318.6880798339844	1289.197143554688	480.4298706054688	-351.3940734863281	1284.697998046875	491.8428039550781	-294.9419860839844	1896.701538085938	40.08621215820312	-459.2522583007812
215	1.07	1823.158813476562	1458.12744140625	-591.0763549804688	1864.164184570312	1478.009765625	-268.83056640625	1821.090209960938	1011.811218261719	-535.4839477539062	1841.359619140625	1015.042114257812	-236.1575317382812	1871.991821289062	976.186767578125	-514.180908203125	1895.007080078125	74.36196899414062	-434.1987915039062	1877.328247070312	965.8775634765624	-249.2741088867188	1772.022338867188	885.8856811523438	-556.3102416992188	1763.263549804688	880.4652709960938	-213.6584014892578	1712.254760742188	1024.435424804688	-375.6839904785156	1940.307495117188	771.7708740234375	-535.9290161132812	1902.84423828125	214.0673370361328	-470.7427673339844	1866.78515625	737.988525390625	-563.4031372070312	1976.251831054688	675.089599609375	-523.4203491210938	1321.258911132812	308.3624267578125	-249.5678100585938	1909.798828125	309.1862182617188	-511.0477294921875	1897.34228515625	644.89794921875	-539.3450927734375	1876.297607421875	739.1748046875	-241.1671447753906	2149.255615234375	76.02008056640625	-440.2589416503906	1800.729736328125	742.80615234375	-214.9212493896484	1869.641723632812	637.6134643554688	-245.8493957519531	1790.426147460938	643.7847290039062	-229.1394195556641	1976.405029296875	514.8248901367188	-502.1028137207031	1791.533203125	477.9169616699219	-259.7131652832031	1993.740234375	302.2610168457031	-500.0916748046875	1978.880859375	202.0540161132812	-492.3083190917969	1614.8017578125	440.6065063476562	-248.6516418457031	2082.8779296875	46.54874420166016	-508.9704284667969	1605.39501953125	518.9666137695312	-270.3865051269531	1903.96240234375	47.59578323364258	-406.1037902832031	1516.878295898438	423.7594909667969	-263.6138000488281	1507.925048828125	499.4229125976562	-292.0264282226562	1948.291381835938	89.11771392822266	-486.0278015136719	1385.471313476562	440.500732421875	-269.1360168457031	1349.175048828125	243.5386047363281	-317.535888671875	1348.222290039062	497.2126770019531	-319.4931030273438	1322.0009765625	481.242431640625	-352.3671569824219	1317.288330078125	493.1058654785156	-295.8908996582031	1898.124145507812	40.88065338134766	-459.2727966308594
216	1.075	1846.06591796875	1452.723876953125	-592.19873046875	1884.055419921875	1473.036010742188	-268.6536560058594	1840.158569335938	1006.872009277344	-536.6307983398438	1860.455444335938	1009.943542480469	-236.7676239013672	1888.344848632812	971.406982421875	-513.1622314453125	1895.546752929688	75.49897766113281	-431.5119323730469	1897.361328125	961.1636352539062	-249.5286407470703	1791.180541992188	880.5213012695312	-558.0458984375	1783.998779296875	874.4406127929688	-215.490478515625	1730.9853515625	1019.668518066406	-376.46435546875	1959.695678710938	764.892822265625	-538.0794677734375	1912.491577148438	215.3409423828125	-471.8435974121094	1885.00732421875	731.9921264648438	-564.7939453125	1993.331909179688	666.938720703125	-523.3704223632812	1355.085815429688	308.9979858398438	-248.4852294921875	1925.778564453125	310.2414855957031	-511.6593322753906	1913.830810546875	637.9295043945312	-541.3067016601562	1900.857788085938	735.34033203125	-240.576904296875	2147.219970703125	74.09982299804688	-440.2539672851562	1825.45703125	737.0484619140625	-215.5672912597656	1897.219848632812	634.1986083984375	-244.7775573730469	1818.132202148438	637.65478515625	-228.3339538574219	1997.405517578125	510.4551086425781	-501.7899475097656	1824.332397460938	472.918212890625	-258.9462890625	2008.5361328125	299.5373840332031	-498.5565185546875	1989.170043945312	200.10302734375	-490.8630981445312	1647.697631835938	437.2206420898438	-248.4554290771484	2079.429443359375	46.26941680908203	-508.2120056152344	1639.506469726562	515.9547729492188	-270.6448669433594	1904.392700195312	47.78311538696289	-403.7686157226562	1549.838623046875	422.0018615722656	-263.403564453125	1542.2666015625	497.9364013671875	-291.66845703125	1950.20166015625	89.833740234375	-483.2096862792969	1418.627319335938	440.9778747558594	-269.4000854492188	1382.662841796875	244.1075134277344	-316.1571960449219	1381.5361328125	497.2975463867188	-320.6231384277344	1355.117919921875	481.5175170898438	-352.6217346191406	1350.330444335938	493.8883972167969	-296.6713562011719	1897.595825195312	42.88582611083984	-457.2566223144531
217	1.08	1869.000244140625	1447.871215820312	-593.6605224609375	1903.290405273438	1468.220825195312	-268.6657104492188	1859.065307617188	1002.450012207031	-537.5652465820312	1879.76611328125	1004.848388671875	-237.4267883300781	1906.508666992188	966.6746215820312	-512.9489135742188	1897.450561523438	77.59284210205078	-428.9933776855469	1916.302856445312	956.5427856445312	-248.6033325195312	1810.004028320312	875.6339111328125	-559.2242431640625	1805.0	868.2236938476562	-216.7484130859375	1749.171264648438	1014.817199707031	-377.1743774414062	1981.05029296875	758.6353759765625	-541.4868774414062	1921.568115234375	219.7726287841797	-472.4233703613281	1904.070434570312	728.3262329101562	-565.8309936523438	2012.291015625	659.8800048828125	-525.5078125	1389.479125976562	309.3946838378906	-247.7218475341797	1941.620239257812	313.7881164550781	-512.8843994140625	1931.08251953125	633.5562133789062	-543.6284790039062	1925.713745117188	732.0534057617188	-240.5924682617188	2147.961181640625	69.33126068115234	-441.0589294433594	1849.9345703125	731.644775390625	-215.4321441650391	1925.283203125	630.6984252929688	-244.0367736816406	1845.561279296875	631.65087890625	-227.7135772705078	2020.359985351562	509.1741638183594	-500.7449951171875	1857.121704101562	467.7375793457031	-258.6449279785156	2023.101684570312	298.6912841796875	-496.5126953125	1998.367065429688	201.0183563232422	-487.9330444335938	1680.908447265625	434.2464904785156	-248.1257934570312	2078.534912109375	45.28989028930664	-508.0047607421875	1673.89990234375	512.9428100585938	-270.3667907714844	1905.000854492188	49.23040390014648	-403.4517822265625	1582.82666015625	420.4229431152344	-263.6296081542969	1576.31103515625	496.5888366699219	-291.9948425292969	1947.582763671875	93.73602294921876	-482.1357727050781	1452.368041992188	441.5533447265625	-269.5138549804688	1416.639404296875	243.9661102294922	-315.0413513183594	1415.410888671875	497.3285827636719	-322.7425537109375	1388.60009765625	481.2777709960938	-353.2132568359375	1383.966674804688	493.7333679199219	-296.998779296875	1898.342407226562	45.6943244934082	-456.7270202636719
218	1.085	1892.040161132812	1443.117919921875	-594.8043823242188	1922.572143554688	1463.609497070312	-268.4940795898438	1877.212890625	998.308837890625	-538.2801513671875	1899.0693359375	999.7897338867188	-237.6489868164062	1923.942504882812	961.870361328125	-513.4442749023438	1899.721435546875	80.92431640625	-428.3250122070312	1936.573608398438	951.8663330078124	-251.0367889404297	1828.105346679688	873.1160888671875	-560.4349365234375	1825.755126953125	862.393798828125	-218.2527160644531	1767.05908203125	1010.654602050781	-378.1220703125	2001.708740234375	756.595458984375	-544.7923583984375	1930.659790039062	225.1526489257812	-472.2315368652344	1923.419311523438	725.7520751953125	-564.7015380859375	2032.499145507812	659.6351928710938	-528.208740234375	1424.22802734375	309.3480834960938	-247.05419921875	1957.378662109375	317.08056640625	-514.1035766601562	1952.04931640625	632.5478515625	-541.3359985351562	1950.2822265625	728.7279052734375	-240.3897399902344	2151.206298828125	66.92378234863281	-440.0961303710938	1874.54638671875	726.4906616210938	-215.2340240478516	1953.018676757812	627.2952880859375	-243.2359771728516	1873.485473632812	626.5645751953125	-226.5988159179688	2041.313598632812	510.4342346191406	-500.0516967773438	1890.423950195312	463.7178955078125	-258.5767822265625	2037.162963867188	298.3030700683594	-493.7205200195312	2006.651000976562	201.9926300048828	-483.36572265625	1715.018920898438	431.5085754394531	-247.592529296875	2081.44970703125	44.69036483764648	-507.438232421875	1708.284057617188	510.0188293457031	-270.6945495605469	1906.384033203125	51.19344711303711	-402.5894165039062	1617.03955078125	418.84912109375	-263.9663696289062	1611.160888671875	494.7073059082031	-291.541015625	1949.410278320312	98.31909942626952	-479.6027221679688	1486.378662109375	440.7096557617188	-269.7318115234375	1451.50537109375	243.4282989501953	-314.6576843261719	1448.31640625	497.1629333496094	-321.7265625	1421.848022460938	480.2606201171875	-353.3087463378906	1417.499877929688	493.3903198242188	-297.222900390625	1899.702270507812	49.06908416748047	-455.8262939453125
